<svg id="visual" viewBox="0 0 960 540" width="960" height="540" xmlns="http://www.w3.org/2000/svg" xmlns:xlink="http://www.w3.org/1999/xlink" version="1.1"><rect x="0" y="0" width="960" height="540" fill="#001220"></rect><defs><linearGradient id="grad1_0" x1="43.8%" y1="0%" x2="100%" y2="100%"><stop offset="14.444444444444446%" stop-color="#001220" stop-opacity="1"></stop><stop offset="85.55555555555554%" stop-color="#001220" stop-opacity="1"></stop></linearGradient></defs><defs><linearGradient id="grad2_0" x1="0%" y1="0%" x2="56.3%" y2="100%"><stop offset="14.444444444444446%" stop-color="#001220" stop-opacity="1"></stop><stop offset="85.55555555555554%" stop-color="#001220" stop-opacity="1"></stop></linearGradient></defs><g transform="translate(960, 0)"><path d="M0 324C-33.4 320 -66.7 316 -99.5 306.2C-132.3 296.5 -164.5 281.1 -187.5 258.1C-210.5 235.1 -224.3 204.6 -245.1 178.1C-266 151.6 -293.8 129.1 -308.1 100.1C-322.5 71.1 -323.2 35.6 -324 0L0 0Z" fill="#FBAE3C"></path></g><g transform="translate(0, 540)"><path d="M0 -324C30 -306.6 60 -289.2 89.9 -276.8C119.8 -264.4 149.7 -257 175.7 -241.9C201.8 -226.8 224.2 -204 247.6 -179.9C270.9 -155.7 295.2 -130.3 308.1 -100.1C321 -69.9 322.5 -35 324 0L0 0Z" fill="#FBAE3C"></path></g></svg>